HIERARCHY
ROOT Hips
{
	OFFSET 0 0 0
	CHANNELS 6 Xposition Yposition Zposition Yrotation Xrotation Zrotation
	JOINT Spine
	{
		OFFSET -0 8.38753 -2.67353
		CHANNELS 3 Yrotation Xrotation Zrotation
		JOINT Spine1
		{
			OFFSET -0 8.14501 0
			CHANNELS 3 Yrotation Xrotation Zrotation
			JOINT Spine2
			{
				OFFSET -0 8.14501 0
				CHANNELS 3 Yrotation Xrotation Zrotation
				JOINT Spine3
				{
					OFFSET -0 8.14501 0
					CHANNELS 3 Yrotation Xrotation Zrotation
					JOINT Neck
					{
						OFFSET -0 20.4023 3.67353
						CHANNELS 3 Yrotation Xrotation Zrotation
						JOINT Head
						{
							OFFSET -0 10.4844 0
							CHANNELS 3 Yrotation Xrotation Zrotation
							End Site
							{
								OFFSET 0 15 0
							}
						}
					}
					JOINT LeftShoulder
					{
						OFFSET 1.7474 7.28686 3.4948
						CHANNELS 3 Yrotation Xrotation Zrotation
						JOINT LeftArm
						{
							OFFSET 15.4467 0 0
							CHANNELS 3 Yrotation Xrotation Zrotation
							JOINT LeftForeArm
							{
								OFFSET 24.9712 0 0
								CHANNELS 3 Yrotation Xrotation Zrotation
								JOINT LeftHand
								{
									OFFSET 23.8013 0 0
									CHANNELS 3 Yrotation Xrotation Zrotation
									End Site
									{
										OFFSET 15 0 0
									}
								}
							}
						}
					}
					JOINT RightShoulder
					{
						OFFSET -1.7474 7.28686 3.4948
						CHANNELS 3 Yrotation Xrotation Zrotation
						JOINT RightArm
						{
							OFFSET -15.4467 0 0
							CHANNELS 3 Yrotation Xrotation Zrotation
							JOINT RightForeArm
							{
								OFFSET -24.9712 0 0
								CHANNELS 3 Yrotation Xrotation Zrotation
								JOINT RightHand
								{
									OFFSET -23.8013 0 0
									CHANNELS 3 Yrotation Xrotation Zrotation
									End Site
									{
										OFFSET -15 0 0
									}
								}
							}
						}
					}
				}
			}
		}
	}
	JOINT LeftUpLeg
	{
		OFFSET 10.4844 -3.4948 2
		CHANNELS 3 Yrotation Xrotation Zrotation
		JOINT LeftLeg
		{
			OFFSET -0 -39.9267 2.44636
			CHANNELS 3 Yrotation Xrotation Zrotation
			JOINT LeftFoot
			{
				OFFSET -0 -41.4083 -2.44636
				CHANNELS 3 Yrotation Xrotation Zrotation
				JOINT LeftToeBase
				{
					OFFSET -0 -6.74672 15.7266
					CHANNELS 3 Yrotation Xrotation Zrotation
					End Site
					{
						OFFSET 0 0 5
					}
				}
			}
		}
	}
	JOINT RightUpLeg
	{
		OFFSET -10.4844 -3.4948 2
		CHANNELS 3 Yrotation Xrotation Zrotation
		JOINT RightLeg
		{
			OFFSET -0 -39.9267 2.44636
			CHANNELS 3 Yrotation Xrotation Zrotation
			JOINT RightFoot
			{
				OFFSET -0 -41.4083 -2.44636
				CHANNELS 3 Yrotation Xrotation Zrotation
				JOINT RightToeBase
				{
					OFFSET -0 -6.74672 15.7266
					CHANNELS 3 Yrotation Xrotation Zrotation
					End Site
					{
						OFFSET 0 0 5
					}
				}
			}
		}
	}
}
MOTION
Frames: 7
Frame Time: 0.00833333
0 95.070404 0 0 0 0 0 0 0 0 0 0 0 0 0 0 0 0 0 0 0 0 0 0 0 0 0 0 0 0 0 0 0 0 0 0 0 0 0 0 0 0 0 0 0 0 0 0 0 0 0 0 0 0 0 0 0 0 0 0 0 0 0 0 0 0 0 0 0 0 0 0
-67.393707 93.905463 -19.863667 0.539595 0.550240 1.585770 0.118041 1.469957 -0.561970 0.082913 1.660911 -0.491497 0.367113 1.827261 -0.404302 0.380497 1.940387 -0.231155 -1.397708 2.633383 -2.501826 -0.356288 11.823457 -0.257465 18.440785 16.472965 3.778381 -56.400498 -3.759333 -44.715614 -4.085882 -4.440980 0.779173 1.140155 -5.432044 -10.234586 -8.148377 1.077409 -13.728362 27.648161 8.590833 74.885814 10.269109 3.390141 -10.359805 -7.071569 -16.969999 24.569124 7.947700 0.802864 7.917167 0.000000 0.643709 0.000000 11.464034 4.314621 -6.227262 0.000000 -6.268132 0.000000 -12.939638 -1.653713 -12.668644 0.000000 1.557070 0.000000 -7.147590 3.442103 9.145456 0.000000 -6.687812 0.000000
-67.397156 93.904230 -19.866588 0.554458 0.558331 1.590479 0.108539 1.472725 -0.584620 0.074060 1.657864 -0.488959 0.373148 1.831723 -0.385249 0.386771 1.968023 -0.217104 -1.403601 2.589347 -2.547263 -0.352544 11.836116 -0.247745 18.448805 16.468379 3.776712 -56.417677 -3.770703 -44.732703 -4.052314 -4.338417 0.757611 1.112647 -5.570200 -10.184539 -8.139485 1.050275 -13.758936 27.608658 8.618089 74.898395 10.291620 3.459550 -10.333206 -7.112514 -16.959763 24.556657 7.976759 0.792820 7.911539 0.000000 0.629069 0.000000 11.420131 4.330551 -6.227138 0.000000 -6.271959 0.000000 -12.957327 -1.658325 -12.669627 0.000000 1.546783 0.000000 -7.133064 3.425577 9.116698 0.000000 -6.617804 0.000000
-67.401947 93.906183 -19.869096 0.571948 0.561113 1.588911 0.109404 1.467041 -0.572498 0.073828 1.680802 -0.491478 0.366445 1.847665 -0.398778 0.380165 1.958285 -0.221678 -1.405164 2.614841 -2.570073 -0.344360 11.722872 -0.181630 18.464534 16.484654 3.790972 -56.419032 -3.774759 -44.721722 -4.025741 -4.319990 0.736103 1.070645 -5.476581 -10.204084 -8.124011 1.037042 -13.759235 27.592631 8.634552 74.928944 10.280478 3.432859 -10.325001 -7.123715 -16.906630 24.536335 7.964904 0.791024 7.919674 0.000000 0.614733 0.000000 11.409316 4.346435 -6.259090 0.000000 -6.243331 0.000000 -12.962241 -1.662448 -12.665027 0.000000 1.553913 0.000000 -7.148605 3.426708 9.133083 0.000000 -6.624258 0.000000
-67.402045 93.906464 -19.872014 0.573598 0.561659 1.588987 0.115071 1.476356 -0.569645 0.079546 1.692919 -0.489691 0.371129 1.851147 -0.398824 0.384817 1.965150 -0.221184 -1.450361 2.653881 -2.667836 -0.325663 11.576201 0.060342 18.471038 16.492322 3.795784 -56.471014 -3.743575 -44.725570 -4.040355 -4.361371 0.746688 1.089779 -5.488783 -10.222861 -8.154237 1.007044 -13.775061 27.640925 8.662298 74.956327 10.256776 3.466489 -10.335175 -7.141171 -16.976157 24.551700 7.969590 0.790985 7.916725 0.000000 0.610662 0.000000 11.401553 4.347131 -6.245518 0.000000 -6.254840 0.000000 -12.976786 -1.667519 -12.659516 0.000000 1.551790 0.000000 -7.141974 3.431834 9.076206 0.000000 -6.658115 0.000000
-67.403375 93.908337 -19.876480 0.586217 0.563707 1.586643 0.109611 1.500992 -0.561804 0.075323 1.694969 -0.484029 0.363493 1.859422 -0.396697 0.378241 1.948309 -0.234809 -1.443934 2.635559 -2.689873 -0.320415 11.550047 0.066761 18.498125 16.490672 3.800476 -56.454117 -3.747456 -44.743701 -4.041441 -4.426988 0.765525 1.078312 -5.339370 -10.331915 -8.107230 1.116874 -13.774570 27.491950 8.612238 74.927663 10.325469 3.492529 -10.341932 -7.153190 -16.924824 24.529304 7.963881 0.788213 7.917281 0.000000 0.597405 0.000000 11.397414 4.354964 -6.215676 0.000000 -6.254353 0.000000 -12.971550 -1.668322 -12.657680 0.000000 1.553469 0.000000 -7.154889 3.432812 9.078335 0.000000 -6.613436 0.000000
-67.405902 93.909259 -19.878166 0.586622 0.571185 1.578199 0.118563 1.490639 -0.558295 0.082984 1.719430 -0.478392 0.355218 1.850624 -0.394527 0.369613 1.961695 -0.242067 -1.454021 2.643937 -2.666444 -0.335032 11.463522 0.020050 18.509423 16.493151 3.822348 -56.441099 -3.776634 -44.746046 -4.039903 -4.543457 0.712767 1.087571 -5.115265 -10.265299 -8.100408 1.087745 -13.771294 27.545680 8.663212 74.948605 10.331298 3.456268 -10.336166 -7.130372 -16.954874 24.481024 7.969545 0.785971 7.926458 0.000000 0.577844 0.000000 11.395490 4.366203 -6.210471 0.000000 -6.265600 0.000000 -12.990659 -1.679647 -12.642705 0.000000 1.552160 0.000000 -7.145293 3.454760 9.093422 0.000000 -6.661813 0.000000
